<svg width="208" height="48" viewBox="0 0 208 48" fill="none" xmlns="http://www.w3.org/2000/svg">
<path d="M74.376 20C74.216 20 74.072 19.944 73.944 19.832C73.832 19.72 73.776 19.576 73.776 19.4V3.8C73.776 3.624 73.832 3.48 73.944 3.368C74.072 3.256 74.216 3.2 74.376 3.2H76.608C76.848 3.2 77.024 3.264 77.136 3.392C77.264 3.52 77.352 3.616 77.4 3.68L81.816 11.816L86.28 3.68C86.312 3.616 86.384 3.52 86.496 3.392C86.624 3.264 86.808 3.2 87.048 3.2H89.28C89.456 3.2 89.6 3.256 89.712 3.368C89.824 3.48 89.88 3.624 89.88 3.8V19.4C89.88 19.576 89.824 19.72 89.712 19.832C89.6 19.944 89.456 20 89.28 20H86.832C86.672 20 86.536 19.944 86.424 19.832C86.312 19.72 86.256 19.576 86.256 19.4V9.704L83.208 15.416C83.128 15.56 83.024 15.688 82.896 15.8C82.768 15.912 82.6 15.968 82.392 15.968H81.264C81.056 15.968 80.888 15.912 80.76 15.8C80.632 15.688 80.528 15.56 80.448 15.416L77.4 9.704V19.4C77.4 19.576 77.344 19.72 77.232 19.832C77.12 19.944 76.984 20 76.824 20H74.376ZM94.0401 20C93.8641 20 93.7201 19.944 93.6081 19.832C93.4961 19.704 93.4401 19.56 93.4401 19.4V3.8C93.4401 3.624 93.4961 3.48 93.6081 3.368C93.7361 3.256 93.8801 3.2 94.0401 3.2H96.6561C96.8321 3.2 96.9761 3.256 97.0881 3.368C97.2001 3.48 97.2561 3.624 97.2561 3.8V14.168L104.624 3.632C104.704 3.52 104.8 3.424 104.912 3.344C105.04 3.248 105.2 3.2 105.392 3.2H107.744C107.92 3.2 108.064 3.256 108.176 3.368C108.288 3.48 108.344 3.624 108.344 3.8V19.4C108.344 19.576 108.288 19.72 108.176 19.832C108.064 19.944 107.92 20 107.744 20H105.128C104.968 20 104.824 19.944 104.696 19.832C104.584 19.72 104.528 19.576 104.528 19.4V9.344L97.1601 19.568C97.1121 19.664 97.0321 19.76 96.9201 19.856C96.8081 19.952 96.6401 20 96.4161 20H94.0401ZM112.485 20C112.309 20 112.165 19.944 112.053 19.832C111.941 19.72 111.885 19.576 111.885 19.4V3.8C111.885 3.624 111.941 3.48 112.053 3.368C112.165 3.256 112.309 3.2 112.485 3.2H119.037C120.333 3.2 121.453 3.4 122.397 3.8C123.357 4.2 124.101 4.808 124.629 5.624C125.173 6.424 125.445 7.424 125.445 8.624C125.445 9.84 125.173 10.848 124.629 11.648C124.101 12.432 123.357 13.016 122.397 13.4C121.453 13.784 120.333 13.976 119.037 13.976H115.821V19.4C115.821 19.576 115.765 19.72 115.653 19.832C115.541 19.944 115.397 20 115.221 20H112.485ZM115.749 11H118.917C119.733 11 120.365 10.8 120.813 10.4C121.277 10 121.509 9.4 121.509 8.6C121.509 7.896 121.301 7.32 120.885 6.872C120.485 6.424 119.829 6.2 118.917 6.2H115.749V11ZM74.376 44C74.2 44 74.056 43.944 73.944 43.832C73.832 43.72 73.776 43.576 73.776 43.4V27.8C73.776 27.624 73.832 27.48 73.944 27.368C74.056 27.256 74.2 27.2 74.376 27.2H87.312C87.488 27.2 87.632 27.256 87.744 27.368C87.856 27.48 87.912 27.624 87.912 27.8V43.4C87.912 43.576 87.856 43.72 87.744 43.832C87.632 43.944 87.488 44 87.312 44H84.696C84.52 44 84.376 43.944 84.264 43.832C84.152 43.72 84.096 43.576 84.096 43.4V30.608H77.592V43.4C77.592 43.576 77.536 43.72 77.424 43.832C77.312 43.944 77.168 44 76.992 44H74.376ZM92.0713 44C91.8953 44 91.7513 43.944 91.6393 43.832C91.5273 43.72 91.4713 43.576 91.4713 43.4V27.8C91.4713 27.624 91.5273 27.48 91.6393 27.368C91.7513 27.256 91.8953 27.2 92.0713 27.2H98.6233C99.9193 27.2 101.039 27.4 101.983 27.8C102.943 28.2 103.687 28.808 104.215 29.624C104.759 30.424 105.031 31.424 105.031 32.624C105.031 33.84 104.759 34.848 104.215 35.648C103.687 36.432 102.943 37.016 101.983 37.4C101.039 37.784 99.9193 37.976 98.6233 37.976H95.4073V43.4C95.4073 43.576 95.3513 43.72 95.2393 43.832C95.1273 43.944 94.9833 44 94.8073 44H92.0713ZM95.3353 35H98.5033C99.3193 35 99.9513 34.8 100.399 34.4C100.863 34 101.095 33.4 101.095 32.6C101.095 31.896 100.887 31.32 100.471 30.872C100.071 30.424 99.4153 30.2 98.5033 30.2H95.3353V35ZM114.151 44.24C112.695 44.24 111.439 44 110.383 43.52C109.327 43.04 108.503 42.32 107.911 41.36C107.319 40.384 106.999 39.16 106.951 37.688C106.935 37 106.927 36.32 106.927 35.648C106.927 34.96 106.935 34.264 106.951 33.56C106.999 32.12 107.319 30.912 107.911 29.936C108.519 28.944 109.351 28.2 110.407 27.704C111.479 27.208 112.727 26.96 114.151 26.96C115.559 26.96 116.791 27.208 117.847 27.704C118.919 28.2 119.759 28.944 120.367 29.936C120.975 30.912 121.295 32.12 121.327 33.56C121.359 34.264 121.375 34.96 121.375 35.648C121.375 36.32 121.359 37 121.327 37.688C121.279 39.16 120.959 40.384 120.367 41.36C119.775 42.32 118.951 43.04 117.895 43.52C116.839 44 115.591 44.24 114.151 44.24ZM114.151 41.144C115.079 41.144 115.839 40.864 116.431 40.304C117.039 39.728 117.359 38.816 117.391 37.568C117.423 36.864 117.439 36.208 117.439 35.6C117.439 34.976 117.423 34.32 117.391 33.632C117.375 32.8 117.223 32.12 116.935 31.592C116.647 31.064 116.263 30.68 115.783 30.44C115.319 30.184 114.775 30.056 114.151 30.056C113.527 30.056 112.975 30.184 112.495 30.44C112.015 30.68 111.631 31.064 111.343 31.592C111.071 32.12 110.919 32.8 110.887 33.632C110.871 34.32 110.863 34.976 110.863 35.6C110.863 36.208 110.871 36.864 110.887 37.568C110.935 38.816 111.255 39.728 111.847 40.304C112.439 40.864 113.207 41.144 114.151 41.144ZM124.954 44C124.778 44 124.634 43.944 124.522 43.832C124.41 43.72 124.354 43.576 124.354 43.4V27.8C124.354 27.624 124.41 27.48 124.522 27.368C124.634 27.256 124.778 27.2 124.954 27.2H127.57C127.746 27.2 127.89 27.256 128.002 27.368C128.114 27.48 128.17 27.624 128.17 27.8V33.8H129.946L133.666 27.656C133.746 27.528 133.858 27.424 134.002 27.344C134.146 27.248 134.33 27.2 134.554 27.2H137.458C137.618 27.2 137.738 27.256 137.818 27.368C137.914 27.464 137.962 27.576 137.962 27.704C137.962 27.8 137.93 27.896 137.866 27.992L133.378 35.288L138.322 43.184C138.354 43.248 138.37 43.336 138.37 43.448C138.37 43.608 138.314 43.744 138.202 43.856C138.106 43.952 137.986 44 137.842 44H134.842C134.602 44 134.426 43.952 134.314 43.856C134.202 43.744 134.114 43.648 134.05 43.568L130.09 37.208H128.17V43.4C128.17 43.576 128.114 43.72 128.002 43.832C127.89 43.944 127.746 44 127.57 44H124.954ZM147.456 44.24C146 44.24 144.744 44 143.688 43.52C142.632 43.04 141.808 42.32 141.216 41.36C140.624 40.384 140.304 39.16 140.256 37.688C140.24 37 140.232 36.32 140.232 35.648C140.232 34.96 140.24 34.264 140.256 33.56C140.304 32.12 140.624 30.912 141.216 29.936C141.824 28.944 142.656 28.2 143.712 27.704C144.784 27.208 146.032 26.96 147.456 26.96C148.864 26.96 150.096 27.208 151.152 27.704C152.224 28.2 153.064 28.944 153.672 29.936C154.28 30.912 154.6 32.12 154.632 33.56C154.664 34.264 154.68 34.96 154.68 35.648C154.68 36.32 154.664 37 154.632 37.688C154.584 39.16 154.264 40.384 153.672 41.36C153.08 42.32 152.256 43.04 151.2 43.52C150.144 44 148.896 44.24 147.456 44.24ZM147.456 41.144C148.384 41.144 149.144 40.864 149.736 40.304C150.344 39.728 150.664 38.816 150.696 37.568C150.728 36.864 150.744 36.208 150.744 35.6C150.744 34.976 150.728 34.32 150.696 33.632C150.68 32.8 150.528 32.12 150.24 31.592C149.952 31.064 149.568 30.68 149.088 30.44C148.624 30.184 148.08 30.056 147.456 30.056C146.832 30.056 146.28 30.184 145.8 30.44C145.32 30.68 144.936 31.064 144.648 31.592C144.376 32.12 144.224 32.8 144.192 33.632C144.176 34.32 144.168 34.976 144.168 35.6C144.168 36.208 144.176 36.864 144.192 37.568C144.24 38.816 144.56 39.728 145.152 40.304C145.744 40.864 146.512 41.144 147.456 41.144ZM168.843 44C168.667 44 168.523 43.944 168.411 43.832C168.299 43.72 168.243 43.576 168.243 43.4V30.608H163.419V33.224C163.419 35.16 163.323 36.808 163.131 38.168C162.939 39.512 162.611 40.608 162.147 41.456C161.683 42.304 161.043 42.936 160.227 43.352C159.427 43.752 158.403 43.968 157.155 44C156.995 44 156.851 43.944 156.723 43.832C156.611 43.704 156.555 43.552 156.555 43.376V41.24C156.555 40.904 156.739 40.704 157.107 40.64C157.571 40.56 157.963 40.336 158.283 39.968C158.619 39.6 158.891 39.088 159.099 38.432C159.323 37.76 159.483 36.952 159.579 36.008C159.675 35.048 159.723 33.96 159.723 32.744V27.8C159.723 27.624 159.779 27.48 159.891 27.368C160.003 27.256 160.139 27.2 160.299 27.2H171.459C171.635 27.2 171.779 27.256 171.891 27.368C172.003 27.48 172.059 27.624 172.059 27.8V43.4C172.059 43.576 172.003 43.72 171.891 43.832C171.779 43.944 171.635 44 171.459 44H168.843ZM182.284 44.24C180.828 44.24 179.572 44 178.516 43.52C177.46 43.04 176.636 42.32 176.044 41.36C175.452 40.384 175.132 39.16 175.084 37.688C175.068 37 175.06 36.32 175.06 35.648C175.06 34.96 175.068 34.264 175.084 33.56C175.132 32.12 175.452 30.912 176.044 29.936C176.652 28.944 177.484 28.2 178.54 27.704C179.612 27.208 180.86 26.96 182.284 26.96C183.692 26.96 184.924 27.208 185.98 27.704C187.052 28.2 187.892 28.944 188.5 29.936C189.108 30.912 189.428 32.12 189.46 33.56C189.492 34.264 189.508 34.96 189.508 35.648C189.508 36.32 189.492 37 189.46 37.688C189.412 39.16 189.092 40.384 188.5 41.36C187.908 42.32 187.084 43.04 186.028 43.52C184.972 44 183.724 44.24 182.284 44.24ZM182.284 41.144C183.212 41.144 183.972 40.864 184.564 40.304C185.172 39.728 185.492 38.816 185.524 37.568C185.556 36.864 185.572 36.208 185.572 35.6C185.572 34.976 185.556 34.32 185.524 33.632C185.508 32.8 185.356 32.12 185.068 31.592C184.78 31.064 184.396 30.68 183.916 30.44C183.452 30.184 182.908 30.056 182.284 30.056C181.66 30.056 181.108 30.184 180.628 30.44C180.148 30.68 179.764 31.064 179.476 31.592C179.204 32.12 179.052 32.8 179.02 33.632C179.004 34.32 178.996 34.976 178.996 35.6C178.996 36.208 179.004 36.864 179.02 37.568C179.068 38.816 179.388 39.728 179.98 40.304C180.572 40.864 181.34 41.144 182.284 41.144ZM193.087 44C192.911 44 192.767 43.944 192.655 43.832C192.543 43.72 192.487 43.576 192.487 43.4V27.8C192.487 27.624 192.543 27.48 192.655 27.368C192.767 27.256 192.911 27.2 193.087 27.2H200.215C201.543 27.2 202.631 27.392 203.479 27.776C204.327 28.16 204.951 28.704 205.351 29.408C205.767 30.112 205.975 30.936 205.975 31.88C205.975 32.472 205.863 32.992 205.639 33.44C205.431 33.888 205.167 34.256 204.847 34.544C204.543 34.832 204.247 35.048 203.959 35.192C204.583 35.48 205.127 35.96 205.591 36.632C206.071 37.288 206.311 38.072 206.311 38.984C206.311 39.992 206.087 40.872 205.639 41.624C205.191 42.376 204.527 42.96 203.647 43.376C202.767 43.792 201.695 44 200.431 44H193.087ZM196.303 41.192H199.975C200.759 41.192 201.351 40.976 201.751 40.544C202.151 40.096 202.351 39.568 202.351 38.96C202.351 38.336 202.143 37.816 201.727 37.4C201.327 36.968 200.743 36.752 199.975 36.752H196.303V41.192ZM196.303 33.992H199.759C200.511 33.992 201.071 33.808 201.439 33.44C201.823 33.056 202.015 32.568 202.015 31.976C202.015 31.384 201.823 30.912 201.439 30.56C201.071 30.192 200.511 30.008 199.759 30.008H196.303V33.992Z" fill="#230D00"/>
<circle cx="24" cy="24" r="24" fill="#CA6100"/>
</svg>
